<svg version="1.1" xmlns="http://www.w3.org/2000/svg" xmlns:xlink="http://www.w3.org/1999/xlink" width="1024" height="1024" viewBox="0 0 1024 1024"><path stroke="none" fill="black" fill-rule="evenodd" d="M386.91333178540043,818.9877265505925C357.9260213474821,817.1065753335688 327.7551112968776,809.0386716277005 306.39993092903785,797.4579031527701C278.46961480640334,782.3114834608555 252.1809203795181,755.5364872973751 236.2398842608948,726.0C227.4173148470856,709.6530255949455 218.1528649017537,681.0639180535356 215.01426640835103,660.5C214.28292373637615,655.7082845871627 214.03328476806047,606.6528198294783 214.22294051296217,505.0L214.5,356.5L218.68884629084698,340.83907575563137C228.45826446184628,304.31395469260866 245.24626019544561,274.5712545199287 269.13111612248963,251.47228466041418C292.0357464537056,229.32128792507172 311.4986167477909,218.023834863695 341.5,209.46491080667903C360.9125261998298,203.92682157584525 358.41237701621367,204.01079385370795 503.5,204.02383188910784C612.260962127544,204.03360549518933 639.1951592600903,204.29538456133204 646.5,205.41367864318732C674.2603571073261,209.6634965610104 698.5171749045654,219.17706913847476 717.574532498036,233.2892528005844C727.185771606514,240.40648145382454 749.4766922582695,263.05238902527105 755.5,271.81869019220403C765.0675944793595,285.74333396693066 766.5784918598,287.5160973685231 768.5863716865634,287.17316832281716C773.4274954674813,286.34634495609674 781.9052177521628,286.6927622844405 785.9645501421356,287.8832767634933C788.8754044251356,288.7369674292009 792.121307686685,290.8671609621763 795.2916637998696,294.0043948603854C799.5261226589856,298.19461431811266 800.4994880719476,298.7150098483338 802.827113657734,298.0331125156651C815.7191815002205,294.25627369413905 824.6585686023977,291.21293757870484 832.7400582404523,287.8495122836763C837.9771439169634,285.6698959968886 842.8780749532526,284.12297136648 843.6310160988726,284.4119019938794C844.7160024996915,284.8282503410669 845.0,288.49396825738063 845.0,302.0821589787348L845.0,319.2270875501368L840.4156910362635,318.53962796560114C837.8943211062085,318.16152519410656 828.6693211062085,318.17304893071025 819.9156910362635,318.5652362691649L804.0,319.27830415726436L803.9999999999999,322.2048935327217C803.9999999999998,323.81451768922324 803.4993761754148,326.066907080989 802.8875026120332,327.2102032922011C801.8956742248839,329.06345158574305 802.5134339585804,329.9511716935358 808.5828849013856,335.3944618381115C824.4944476501114,349.66449277025174 836.8961763939939,362.3154618392004 846.9179937791425,374.5C864.3924135554673,395.7454215058819 870.9999999999999,404.8212630216317 871.0,407.5778074076734C871.0,410.8891418558342 868.9314116470981,414.75950082379313 862.5448030883356,423.3976041047843C859.6566549017358,427.30392184715294 856.2764511498823,432.49475260963004 855.033239195328,434.9327835769556C852.8392580722483,439.2353434905735 848.5989842101661,446.03892595309014 839.0986929291348,460.5C836.5694118181107,464.35 833.8400579149734,467.5 833.0334620332743,467.5C831.3924854876326,467.5 830.9448206870456,466.01796475251183 825.4819412218487,442.5C818.2270666515179,411.2674081927077 806.5721993368662,379.6828676102611 796.3307062634041,363.50052804411143L792.5337552582978,357.50105608822287L791.7102570461002,361.50052804411143C790.2415254676303,368.63369563550486 788.8340931097539,499.48734095570046 789.3870153406739,577.5C789.9792102339816,661.053700169583 789.5297318414808,672.7295675271428 785.0360589107885,690.5225412421493C777.9494869982306,718.5822575843034 758.6050664410667,750.5918435923504 734.8600380334206,773.5497712938073C723.8916361694032,784.1545923397805 714.326634693315,791.0989948326343 700.5,798.495918387495C684.5478807070104,807.029926088249 669.184864950215,812.2393756232451 645.5,817.145884576461L634.5,819.4246224370661L516.5,819.5821368491472C451.6,819.6687697757919 393.2859993034302,819.4012851414423 386.91333178540043,818.9877265505925zM399.5,509.53187947503346C409.5693259891059,506.57391288448326 425.9204994013477,499.08731282906416 436.5,492.5909422672415C453.8137497238538,481.95938806749626 478.4099740869087,468.6634828038276 484.6576114714379,466.55853052804093C500.4696824331683,461.23113191201145 511.15500665789017,461.0872761958821 524.3261770477392,466.0244756141434C530.1214992123871,468.1968460545097 546.75714547542,477.54835048576666 567.0,490.01299028480736C599.5804224944914,510.07454980455213 618.8479213782892,515.3966109007416 644.9793254650294,511.5524094313946C673.9249582435211,507.2942056361107 700.2815299063601,494.37118063549275 720.5478927635302,474.5C740.5578631328708,454.8802123487911 752.8249102955776,429.17977980517384 757.5462146172717,396.98559393169364C759.277698830087,385.17874548766645 760.1128374976364,337.0642122617395 758.7262613624425,329.0L757.9525227248852,324.5L502.7592457885923,324.76701557385155C329.0827295721831,324.9487379734336 247.23600113016843,325.36359157844873 246.5329844261497,326.0657405229016C245.87611616319137,326.72179798902476 245.38337071724763,339.4232562204793 245.17968344754462,360.949666890639C244.83020286727844,397.8840442968668 245.44821975756238,404.76540364732546 250.58500754750702,421.1356878915328C260.51542154070665,452.7826443902138 287.6343176043215,483.7084995693046 318.3821568402028,498.450222217073C334.0369836821632,505.9557615049757 348.42888147497104,510.1628136350199 366.0,512.3699117102578C374.86090488209857,513.4829248677464 390.5846669574785,512.1508489385247 399.5,509.53187947503346zM369.11232577588345,469.4194506788978C355.53277092114627,465.76745091456337 344.0490917467202,456.0100454578472 337.4391608087768,442.5075256775651C333.2874707719927,434.0266084986151 331.8656832252402,425.1124945363342 333.0338318129998,414.88764336857116C334.5217030237672,401.8642473329065 338.413765911002,393.586234088998 347.1624419487557,384.8375580512443C357.50322616469407,374.49677383530593 371.6769267988741,369.31704663119416 387.1279186440639,370.23232035031714C396.81595216334404,370.80621247057866 403.2792292339825,372.8377789675083 410.8746177241241,377.6964902654334C423.14442024107234,385.54538807886104 430.88007524066325,396.8141160519623 433.63888440327025,410.8577841349243C436.30118233261277,424.4101635326759 433.8265153737145,433.88089524931564 423.64392999975973,449.1092067497224C413.55723403092543,464.19411324274273 400.27789629914946,471.1039734031149 381.70077889709967,470.9341888880431C377.74035050369486,470.89799277646677 372.0755465991476,470.2163605823514 369.11232577588345,469.4194506788978zM610.6205915669577,469.4104792886082C594.1778351688181,465.4311138830895 578.751832780271,448.8088693933056 574.4147440902843,430.39697251228944C572.2540446409372,421.2243273819052 573.0474129719165,410.70644844110615 576.6375362516042,400.92887055962C578.937619290653,394.66467312232663 580.4732610951048,392.3849954761349 586.4326315212743,386.3879407256886C603.1407868250262,369.57413071388777 625.0470997310837,365.3991713657071 645.6405783000823,375.10394364453606C665.3424268732881,384.388531152873 677.2237451236581,408.4122696728295 672.5355320435042,429.48489049091586C670.4995058472565,438.63643869823636 662.56971229226,452.942676468124 656.2736854247471,458.82308734205515C644.9350935571126,469.4131912784833 627.4177862667768,473.47562347001707 610.6205915669577,469.4104792886082zM382.9991567636871,407.38179681812915C389.6365299026011,401.38532893703706 390.1266365290844,395.0743959926237 384.34891057411795,390.0014854148403C378.58962119498295,384.94476236503635 370.3654537407791,386.2116736589972 364.6191158503435,393.0408082280331C360.68426247002895,397.7171157748483 360.9771099708848,403.17710997088477 365.4,407.6C368.3772753897629,410.57727538976286 369.43372874041637,411.0 373.8971191769666,411.0C378.34952896265577,411.0 379.5008006728479,410.54235137733417 382.9991567636871,407.38179681812915zM625.044445567402,407.45741844399714C626.6945511929498,405.8765169230574 628.5457174435254,402.91059662928876 629.1581483464588,400.86648445784465C630.1027783684948,397.7135904475878 629.9856445636007,396.6627893583677 628.3858295395326,393.9380538115686C626.1468958296331,390.1247990449158 620.754725058849,387.0 616.4134849403695,387.0C612.516121716901,387.0 607.1890148059733,390.51218790635676 604.7486371498617,394.69069178155075C602.2662970519583,398.94104528428113 603.7236504087568,404.7482353410682 608.2226902135658,408.5339277504946C611.0125204183868,410.88141510072677 612.0673405154347,411.15914808735306 616.725930142177,410.7728215940826C620.8630202133181,410.42974190095975 622.7106151770909,409.6933698622184 625.044445567402,407.45741844399714z"/></svg>